M48
INCH
T01C0.019
T02C0.0433
%
T01
X+008190Y+005190
X+008690Y+005190
X+008690Y+004690
X+008190Y+004690
X+007190Y+006190
X+006690Y+006190
X+006190Y+006190
X+005690Y+006190
X+005690Y+005690
X+006190Y+005690
X+006190Y+006690
X+006690Y+006690
X+007190Y+006690
X+007690Y+006690
X+006190Y+007190
X+005690Y+007190
X+005690Y+006690
X+007190Y+009690
X+007190Y+010190
X+007190Y+010690
X+007190Y+011190
X+007690Y+011190
X+007690Y+011690
X+007190Y+011690
X+006690Y+011690
X+006690Y+011190
X+006190Y+011190
X+006190Y+011690
X+005690Y+011690
X+005190Y+011190
X+005690Y+010690
X+006690Y+010690
X+007690Y+010690
X+008190Y+011190
X+008190Y+011690
X+008690Y+011690
X+009190Y+011190
X+008690Y+010690
T02
X+004690Y+011690
X+004690Y+010690
X+004690Y+009690
X+004690Y+008690
X+004690Y+007690
X+004690Y+006690
X+004690Y+005690
X+004690Y+004690
X+009690Y+004690
X+009690Y+005690
X+009690Y+006690
X+009690Y+007690
X+009690Y+008690
X+009690Y+009690
X+009690Y+010690
X+009690Y+011690
T00
M30
