G04 DipTrace Beta 3.0.9.0*
G04 BOARD.gto*
%MOIN*%
G04 #@! TF.FileFunction,Legend,Top*
G04 #@! TF.Part,Single*
%ADD10C,0.009843*%
%ADD35C,0.00772*%
%FSLAX26Y26*%
G04*
G70*
G90*
G75*
G01*
G04 TopSilk*
%LPD*%
X716609Y525822D2*
D10*
Y474680D1*
X829109Y607071D2*
Y555929D1*
X668429Y829109D2*
X719571D1*
X657691Y1054484D2*
Y841884D1*
X783663Y1054484D2*
Y841884D1*
X657691D2*
X783663D1*
X657691Y1054484D2*
X700988D1*
X740366D2*
X783663D1*
X700988D2*
G03X740366Y1054484I19689J23D01*
G01*
X649951Y591063D2*
D35*
X647574Y595816D1*
X642766Y600625D1*
X638013Y603001D1*
X628451D1*
X623643Y600625D1*
X618889Y595816D1*
X616458Y591063D1*
X614081Y583878D1*
Y571885D1*
X616458Y564755D1*
X618889Y559946D1*
X623643Y555193D1*
X628451Y552761D1*
X638013D1*
X642766Y555193D1*
X647574Y559946D1*
X649951Y564755D1*
X665390Y593384D2*
X670199Y595816D1*
X677384Y602946D1*
Y552761D1*
X751701Y672312D2*
X749324Y677066D1*
X744516Y681874D1*
X739763Y684251D1*
X730201D1*
X725393Y681874D1*
X720639Y677066D1*
X718208Y672312D1*
X715831Y665127D1*
Y653134D1*
X718208Y646004D1*
X720639Y641196D1*
X725393Y636442D1*
X730201Y634011D1*
X739763D1*
X744516Y636442D1*
X749324Y641196D1*
X751701Y646004D1*
X769572Y672257D2*
Y674634D1*
X771949Y679442D1*
X774325Y681819D1*
X779134Y684195D1*
X788695D1*
X793448Y681819D1*
X795825Y679442D1*
X798257Y674634D1*
Y669881D1*
X795825Y665072D1*
X791072Y657942D1*
X767140Y634011D1*
X800634D1*
X603188Y751701D2*
X598434Y749324D1*
X593626Y744516D1*
X591249Y739763D1*
Y730201D1*
X593626Y725393D1*
X598434Y720640D1*
X603188Y718208D1*
X610373Y715831D1*
X622366D1*
X629496Y718208D1*
X634304Y720640D1*
X639058Y725393D1*
X641489Y730201D1*
Y739763D1*
X639058Y744516D1*
X634304Y749324D1*
X629496Y751701D1*
X591305Y771949D2*
Y798202D1*
X610428Y783887D1*
Y791072D1*
X612805Y795825D1*
X615181Y798202D1*
X622366Y800634D1*
X627119D1*
X634304Y798202D1*
X639113Y793449D1*
X641489Y786263D1*
Y779078D1*
X639113Y771949D1*
X636681Y769572D1*
X631928Y767140D1*
X765181Y725939D2*
Y747438D1*
X762749Y754624D1*
X760373Y757055D1*
X755620Y759432D1*
X750811D1*
X746058Y757055D1*
X743626Y754624D1*
X741249Y747439D1*
Y725939D1*
X791489D1*
X765181Y742685D2*
X791489Y759432D1*
X750866Y774871D2*
X748434Y779680D1*
X741305Y786865D1*
X791489D1*
X690214Y1127707D2*
Y1091837D1*
X692591Y1084652D1*
X697399Y1079899D1*
X704584Y1077467D1*
X709337D1*
X716522Y1079899D1*
X721331Y1084652D1*
X723707Y1091837D1*
Y1127707D1*
X739147Y1118090D2*
X743955Y1120522D1*
X751140Y1127651D1*
Y1077467D1*
M02*
