G04 DipTrace Beta 3.0.9.0*
G04 BOARD.gtl*
%MOIN*%
G04 #@! TF.FileFunction,Copper,L1,Top*
G04 #@! TF.Part,Single*
G04 #@! TA.AperFunction,Conductor*
%ADD11C,0.006*%
G04 #@! TA.AperFunction,CopperBalancing*
%ADD13C,0.025*%
%ADD14R,0.051181X0.059055*%
%ADD15R,0.059055X0.051181*%
G04 #@! TA.AperFunction,ComponentPad*
%ADD16R,0.066929X0.066929*%
%ADD17C,0.066929*%
%ADD18R,0.070866X0.015748*%
G04 #@! TA.AperFunction,ViaPad*
%ADD19C,0.03*%
%FSLAX26Y26*%
G04*
G70*
G90*
G75*
G01*
G04 Top*
%LPD*%
X469000Y1169000D2*
D11*
X512749D1*
X606500Y1075249D1*
Y1037751D1*
X469000Y1069000D2*
X506501D1*
X562751Y1012751D1*
X605909D1*
X606500Y1012160D1*
X469000Y969000D2*
X475249D1*
X494000Y987751D1*
X605319D1*
X606500Y986570D1*
X469000Y869000D2*
Y894000D1*
X537751Y962751D1*
X604728D1*
X606500Y960979D1*
X844000Y793803D2*
X700054D1*
X694000Y787749D1*
Y931501D1*
X662751Y962751D1*
X608272D1*
X606500Y960979D1*
X469000Y769000D2*
Y787749D1*
X512751Y831500D1*
Y912751D1*
X537751Y937751D1*
X604138D1*
X606500Y935388D1*
X844000Y719000D2*
Y637751D1*
X787749Y581500D1*
Y550249D1*
X737751Y500251D1*
X675249D1*
X844000Y719000D2*
X800249D1*
X769000Y750249D1*
X662751D1*
X644000Y769000D1*
Y812751D1*
X675249Y844000D1*
Y919001D1*
X656500Y937751D1*
X608862D1*
X606500Y935388D1*
X469000Y669000D2*
Y700251D1*
X525249Y756500D1*
Y894000D1*
X544000Y912751D1*
X603547D1*
X606500Y909798D1*
X694000Y712946D2*
X668804D1*
X625249Y756501D1*
Y818999D1*
X656500Y850249D1*
Y906500D1*
X650249Y912751D1*
X609453D1*
X606500Y909798D1*
X600446Y500251D2*
Y544194D1*
X622126Y565874D1*
X637752Y581500D1*
X712946D1*
Y619000D1*
Y669000D1*
Y694000D1*
X694000Y712946D1*
X619000Y569000D2*
X622126Y565874D1*
X719000Y669000D2*
X712946D1*
X719000Y619000D2*
X712946D1*
X469000Y569000D2*
Y587751D1*
X519000Y637751D1*
Y731499D1*
X537751Y750249D1*
Y875252D1*
X550249Y887751D1*
X602957D1*
X606500Y884207D1*
X469000Y469000D2*
X531500Y531500D1*
Y725251D1*
X550249Y744000D1*
Y856500D1*
X556500Y862751D1*
X602366D1*
X606500Y858617D1*
X969000Y1169000D2*
X931500D1*
X837751Y1075249D1*
Y1040655D1*
X834846Y1037751D1*
X969000Y1069000D2*
X944000D1*
X887751Y1012751D1*
X835436D1*
X834846Y1012160D1*
X969000Y969000D2*
X956500D1*
X937751Y987751D1*
X836026D1*
X834846Y986570D1*
X969000Y869000D2*
Y887749D1*
X894000Y962751D1*
X836617D1*
X834846Y960979D1*
X969000Y769000D2*
Y781500D1*
X925249Y825251D1*
Y906500D1*
X894000Y937751D1*
X837207D1*
X834846Y935388D1*
X969000Y669000D2*
X962751D1*
X912749Y719000D1*
Y894000D1*
X894000Y912751D1*
X837798D1*
X834846Y909798D1*
X969000Y569000D2*
X900249Y637749D1*
Y869000D1*
X881500Y887751D1*
X838388D1*
X834846Y884207D1*
X969000Y469000D2*
X887749Y550251D1*
Y837749D1*
X869000Y856500D1*
X836971D1*
X834854Y858617D1*
D19*
X819000Y519000D3*
X869000D3*
Y469000D3*
X819000D3*
X569000Y669000D3*
X619000D3*
X569000Y619000D3*
X619000D3*
X569000Y569000D3*
X619000D3*
Y719000D3*
X669000Y669000D3*
Y619000D3*
X719000Y669000D3*
Y619000D3*
X769000Y669000D3*
X569000Y719000D3*
Y1169000D3*
X619000D3*
X669000D3*
X719000D3*
X769000D3*
X819000D3*
X869000D3*
X819000Y1119000D3*
X769000D3*
X719000D3*
X669000D3*
X619000D3*
X669000Y1069000D3*
X719000D3*
X769000D3*
X719000Y1019000D3*
Y969000D3*
X519000Y1119000D3*
X919000D3*
X869000Y1069000D3*
X569000D3*
X545327Y1180631D2*
D13*
X898921D1*
X570181Y1155762D2*
X874067D1*
X595034Y1130894D2*
X849214D1*
X518667Y1106025D2*
X531538D1*
X619937D2*
X824311D1*
X538541Y1081156D2*
X556391D1*
X637906D2*
X806343D1*
X887857D2*
X907759D1*
X670913Y1056287D2*
X770406D1*
X670913Y1031419D2*
X770406D1*
X670913Y1006550D2*
X770406D1*
X688003Y981681D2*
X770406D1*
X712906Y956812D2*
X770406D1*
X725991Y931944D2*
X770406D1*
X725991Y907075D2*
X770406D1*
X725991Y882206D2*
X770406D1*
X725991Y857337D2*
X770406D1*
X752505Y832469D2*
X770406D1*
X582241Y807600D2*
X612007D1*
X582241Y782731D2*
X612007D1*
X582241Y757862D2*
X614205D1*
X580093Y732993D2*
X635786D1*
X435000Y708125D2*
X487007D1*
X563491D2*
X766938D1*
X435000Y683256D2*
X487007D1*
X563491D2*
X785493D1*
X435000Y658387D2*
X487007D1*
X563491D2*
X812007D1*
X435000Y633518D2*
X470551D1*
X563491D2*
X733150D1*
X563491Y608650D2*
X733150D1*
X563491Y583781D2*
X733150D1*
X842349D2*
X855757D1*
X563491Y558912D2*
X733150D1*
X842349D2*
X855757D1*
X563491Y534043D2*
X620650D1*
X842349D2*
X860639D1*
X553383Y509175D2*
X620650D1*
X790883D2*
X884614D1*
X529458Y484306D2*
X620650D1*
X766030D2*
X906538D1*
X530678Y459437D2*
X620650D1*
X729849D2*
X906538D1*
X520571Y434568D2*
X906538D1*
X545104Y1072125D2*
X567955D1*
X528982Y1111049D1*
X528965Y1109035D1*
X513681D1*
X520129Y1100332D1*
X524054Y1092699D1*
X527361Y1089860D1*
X545073Y1072147D1*
X636022Y1072125D2*
X668433D1*
Y991696D1*
X674039Y990005D1*
X680091Y986617D1*
X683610Y983610D1*
X716432Y950660D1*
X720285Y944894D1*
X722685Y938388D1*
X723500Y931501D1*
X723487Y931167D1*
X723500Y839850D1*
X750028Y839840D1*
X750054Y823303D1*
X787993D1*
X784287Y824243D1*
X772921D1*
X772962Y1020944D1*
X772913Y1072125D1*
X808217D1*
X808614Y1079864D1*
X810496Y1086538D1*
X813885Y1092589D1*
X816891Y1096109D1*
X912661Y1191684D1*
X920488Y1204247D1*
X921478Y1205503D1*
X528987Y1205500D1*
X528965Y1193661D1*
X533609Y1189860D1*
X628932Y1094408D1*
X632785Y1088642D1*
X635185Y1082136D1*
X636000Y1075249D1*
X635987Y1074915D1*
X636000Y1072173D1*
X616822Y824243D2*
X579713D1*
X579659Y741685D1*
X578306Y734885D1*
X575403Y728587D1*
X571109Y723140D1*
X570864Y722913D1*
X561000Y712751D1*
X560909Y529185D1*
X559556Y522385D1*
X556654Y516087D1*
X552360Y510640D1*
X552114Y510413D1*
X526776Y485056D1*
X528226Y478381D1*
X528965Y469000D1*
X528226Y459619D1*
X526030Y450470D1*
X522429Y441777D1*
X517512Y433753D1*
X516522Y432497D1*
X909013Y432500D1*
X909035Y487307D1*
X865318Y531092D1*
X861465Y536858D1*
X859064Y543364D1*
X858249Y550251D1*
X858262Y550585D1*
X858249Y610260D1*
X839828Y591860D1*
X839840Y525472D1*
X804635D1*
X756909Y477819D1*
X751143Y473966D1*
X744638Y471566D1*
X737751Y470751D1*
X737416Y470764D1*
X727350Y470751D1*
X727340Y444223D1*
X623159D1*
Y556278D1*
X727340D1*
Y531522D1*
X735639Y539858D1*
X735659Y637528D1*
X802245Y637715D1*
X814500Y650251D1*
Y666902D1*
X787972Y666909D1*
Y692154D1*
X782909Y695134D1*
X779390Y698140D1*
X756500Y720749D1*
X660436Y720840D1*
X653635Y722193D1*
X647337Y725096D1*
X641891Y729390D1*
X641664Y729635D1*
X621568Y749841D1*
X617715Y755608D1*
X615315Y762113D1*
X614500Y769000D1*
X614513Y769335D1*
X614591Y815066D1*
X615944Y821866D1*
X616840Y824245D1*
X876282Y1072125D2*
X896780D1*
Y1063482D1*
X909462Y1076181D1*
X910693Y1082999D1*
X913600Y1091948D1*
X917871Y1100332D1*
X923403Y1107944D1*
X930056Y1114597D1*
X935941Y1118974D1*
X928773Y1124589D1*
X876367Y1072147D1*
X489514Y712702D2*
X482999Y710693D1*
X473705Y709220D1*
X464295D1*
X455001Y710693D1*
X446052Y713600D1*
X437668Y717871D1*
X432497Y721478D1*
X432500Y616584D1*
X441777Y622429D1*
X450470Y626030D1*
X459619Y628226D1*
X468504Y628945D1*
X489500Y650251D1*
Y712604D1*
D14*
X675249Y500251D3*
X600446D3*
X787749Y581500D3*
X712946D3*
D15*
X694000Y787749D3*
Y712946D3*
D16*
X469000Y1169000D3*
D17*
Y1069000D3*
Y969000D3*
Y869000D3*
Y769000D3*
Y669000D3*
Y569000D3*
Y469000D3*
D16*
X969000D3*
D17*
Y569000D3*
Y669000D3*
Y769000D3*
Y869000D3*
Y969000D3*
Y1069000D3*
Y1169000D3*
D15*
X844000Y719000D3*
Y793803D3*
D18*
X606500Y1037751D3*
Y1012160D3*
Y986570D3*
Y960979D3*
Y935388D3*
Y909798D3*
Y884207D3*
Y858617D3*
X834854D3*
X834846Y884207D3*
Y909798D3*
Y935388D3*
Y960979D3*
Y986570D3*
Y1012160D3*
Y1037751D3*
M02*
